<?xml version="1.0" encoding="UTF-8" standalone="no"?>
<svg width="18px" height="18px" viewBox="0 0 18 18" version="1.1" xmlns="http://www.w3.org/2000/svg" xmlns:xlink="http://www.w3.org/1999/xlink" xmlns:sketch="http://www.bohemiancoding.com/sketch/ns">
    <!-- Generator: Sketch 3.4.2 (15857) - http://www.bohemiancoding.com/sketch -->
    <title>Google_Icon</title>
    <desc>Created with Sketch.</desc>
    <defs>
        <path id="path-1" d="M17.1199234,7.25079107 L16.112869,7.25079107 L12.8097309,7.25079107 L8.86207798,7.25079107 L8.86207798,10.6747757 L13.6153743,10.6747757 C13.1722704,12.8500131 11.3192905,14.0987604 8.86207798,14.0987604 C5.96176155,14.0987604 3.62539554,11.7623944 3.62539554,8.86207798 C3.62539554,5.96176155 5.96176155,3.62539554 8.86207798,3.62539554 C10.1108253,3.62539554 11.2387262,4.06849944 12.124934,4.79357854 L14.702993,2.21551949 C13.1319883,0.845925625 11.1178796,0 8.86207798,0 C3.94765292,0 0,3.94765292 0,8.86207798 C0,13.776503 3.94765292,17.724156 8.86207798,17.724156 C13.293117,17.724156 17.3213342,14.5015821 17.3213342,8.86207798 C17.3213342,8.33840973 17.2407699,7.77445932 17.1199234,7.25079107 L17.1199234,7.25079107 Z"></path>
        <path id="path-3" d="M17.1199234,7.25079107 L16.112869,7.25079107 L12.8097309,7.25079107 L8.86207798,7.25079107 L8.86207798,10.6747757 L13.6153743,10.6747757 C13.1722704,12.8500131 11.3192905,14.0987604 8.86207798,14.0987604 C5.96176155,14.0987604 3.62539554,11.7623944 3.62539554,8.86207798 C3.62539554,5.96176155 5.96176155,3.62539554 8.86207798,3.62539554 C10.1108253,3.62539554 11.2387262,4.06849944 12.124934,4.79357854 L14.702993,2.21551949 C13.1319883,0.845925625 11.1178796,0 8.86207798,0 C3.94765292,0 0,3.94765292 0,8.86207798 C0,13.776503 3.94765292,17.724156 8.86207798,17.724156 C13.293117,17.724156 17.3213342,14.5015821 17.3213342,8.86207798 C17.3213342,8.33840973 17.2407699,7.77445932 17.1199234,7.25079107 L17.1199234,7.25079107 Z"></path>
        <path id="path-5" d="M17.1199234,7.25079107 L16.112869,7.25079107 L12.8097309,7.25079107 L8.86207798,7.25079107 L8.86207798,10.6747757 L13.6153743,10.6747757 C13.1722704,12.8500131 11.3192905,14.0987604 8.86207798,14.0987604 C5.96176155,14.0987604 3.62539554,11.7623944 3.62539554,8.86207798 C3.62539554,5.96176155 5.96176155,3.62539554 8.86207798,3.62539554 C10.1108253,3.62539554 11.2387262,4.06849944 12.124934,4.79357854 L14.702993,2.21551949 C13.1319883,0.845925625 11.1178796,0 8.86207798,0 C3.94765292,0 0,3.94765292 0,8.86207798 C0,13.776503 3.94765292,17.724156 8.86207798,17.724156 C13.293117,17.724156 17.3213342,14.5015821 17.3213342,8.86207798 C17.3213342,8.33840973 17.2407699,7.77445932 17.1199234,7.25079107 L17.1199234,7.25079107 Z"></path>
        <path id="path-7" d="M17.1199234,7.25079107 L16.112869,7.25079107 L12.8097309,7.25079107 L8.86207798,7.25079107 L8.86207798,10.6747757 L13.6153743,10.6747757 C13.1722704,12.8500131 11.3192905,14.0987604 8.86207798,14.0987604 C5.96176155,14.0987604 3.62539554,11.7623944 3.62539554,8.86207798 C3.62539554,5.96176155 5.96176155,3.62539554 8.86207798,3.62539554 C10.1108253,3.62539554 11.2387262,4.06849944 12.124934,4.79357854 L14.702993,2.21551949 C13.1319883,0.845925625 11.1178796,0 8.86207798,0 C3.94765292,0 0,3.94765292 0,8.86207798 C0,13.776503 3.94765292,17.724156 8.86207798,17.724156 C13.293117,17.724156 17.3213342,14.5015821 17.3213342,8.86207798 C17.3213342,8.33840973 17.2407699,7.77445932 17.1199234,7.25079107 L17.1199234,7.25079107 Z"></path>
    </defs>
    <g id="Login" stroke="none" stroke-width="1" fill="none" fill-rule="evenodd" sketch:type="MSPage">
        <g id="Desktop" sketch:type="MSArtboardGroup" transform="translate(-466.000000, -225.000000)">
            <g id="Sign-In" sketch:type="MSLayerGroup" transform="translate(400.000000, 112.000000)">
                <g id="Google" transform="translate(48.000000, 104.000000)">
                    <g id="Google_Icon" transform="translate(14.906250, 6.056641)">
                        <g id="Group" transform="translate(3.191250, 3.077028)">
                            <g id="Clipped">
                                <mask id="mask-2" sketch:name="SVGID_1_" fill="white">
                                    <use xlink:href="#path-1"></use>
                                </mask>
                                <g id="SVGID_1_"></g>
                                <path d="M-0.805643452,14.0987604 L-0.805643452,3.62539554 L6.04232589,8.86207798 L-0.805643452,14.0987604 Z" id="Shape" fill="#FBBC05" sketch:type="MSShapeGroup" mask="url(#mask-2)"></path>
                            </g>
                            <g id="Clipped">
                                <mask id="mask-4" sketch:name="SVGID_1_" fill="white">
                                    <use xlink:href="#path-3"></use>
                                </mask>
                                <g id="SVGID_1_"></g>
                                <path d="M-0.805643452,3.62539554 L6.04232589,8.86207798 L8.86207798,6.40486545 L18.5297994,4.83386071 L18.5297994,-0.805643452 L-0.805643452,-0.805643452 L-0.805643452,3.62539554 Z" id="Shape" fill="#EA4335" sketch:type="MSShapeGroup" mask="url(#mask-4)"></path>
                            </g>
                            <g id="Clipped">
                                <mask id="mask-6" sketch:name="SVGID_1_" fill="white">
                                    <use xlink:href="#path-5"></use>
                                </mask>
                                <g id="SVGID_1_"></g>
                                <path d="M-0.805643452,14.0987604 L11.2790083,4.83386071 L14.4613,5.23668244 L18.5297994,-0.805643452 L18.5297994,18.5297994 L-0.805643452,18.5297994 L-0.805643452,14.0987604 Z" id="Shape" fill="#34A853" sketch:type="MSShapeGroup" mask="url(#mask-6)"></path>
                            </g>
                            <g id="Clipped">
                                <mask id="mask-8" sketch:name="SVGID_1_" fill="white">
                                    <use xlink:href="#path-7"></use>
                                </mask>
                                <g id="SVGID_1_"></g>
                                <path d="M18.5297994,18.5297994 L6.04232589,8.86207798 L4.43103899,7.6536128 L18.5297994,3.62539554 L18.5297994,18.5297994 Z" id="Shape" fill="#4285F4" sketch:type="MSShapeGroup" mask="url(#mask-8)"></path>
                            </g>
                        </g>
                    </g>
                </g>
            </g>
        </g>
    </g>
</svg>