<?xml version="1.0" encoding="UTF-8" standalone="no"?>
<svg width="18px" height="17px" viewBox="0 0 18 17" version="1.1" xmlns="http://www.w3.org/2000/svg" xmlns:xlink="http://www.w3.org/1999/xlink" xmlns:sketch="http://www.bohemiancoding.com/sketch/ns">
    <!-- Generator: Sketch 3.4.2 (15857) - http://www.bohemiancoding.com/sketch -->
    <title>LinkedIn_Icon</title>
    <desc>Created with Sketch.</desc>
    <defs></defs>
    <g id="Login" stroke="none" stroke-width="1" fill="none" fill-rule="evenodd" sketch:type="MSPage">
        <g id="Desktop" sketch:type="MSArtboardGroup" transform="translate(-466.000000, -322.000000)" fill="#FFFFFF">
            <g id="Sign-In" sketch:type="MSLayerGroup" transform="translate(400.000000, 112.000000)">
                <g id="Linkedin" transform="translate(48.000000, 200.000000)" sketch:type="MSShapeGroup">
                    <g id="LinkedIn_Icon" transform="translate(14.906250, 6.056641)">
                        <path d="M7.76755628,9.41047693 L4.22137424,9.41047693 L4.22137424,20.0652819 L7.76755628,20.0652819 L7.76755628,9.41047693 Z M8.00111678,6.1145159 C7.97810066,5.06981902 7.23103283,4.27411542 6.01790629,4.27411542 C4.80477975,4.27411542 4.01167969,5.06981902 4.01167969,6.1145159 C4.01167969,7.13757349 4.78133872,7.95618929 5.97187405,7.95618929 L5.99453608,7.95618929 C7.23103283,7.95618929 8.00111678,7.13757349 8.00111678,6.1145159 Z M20.5564453,13.9561424 C20.5564453,10.6834471 18.8070078,9.16028147 16.4734566,9.16028147 C14.5906672,9.16028147 13.7477106,10.1944416 13.2770487,10.9199236 L13.2770487,9.4107598 L9.73044176,9.4107598 C9.77718219,10.4105516 9.73044176,20.0655648 9.73044176,20.0655648 L13.2770487,20.0655648 L13.2770487,14.1150427 C13.2770487,13.7966056 13.3000648,13.4789465 13.393829,13.2509561 C13.6501223,12.6147892 14.2336695,11.9561344 15.2133771,11.9561344 C16.49711,11.9561344 17.0102633,12.9331555 17.0102633,14.3649553 L17.0102633,20.0652819 L20.5563037,20.0652819 L20.5564453,13.9561424 Z" id="Path"></path>
                    </g>
                </g>
            </g>
        </g>
    </g>
</svg>